# Blender 4.0.2
# www.blender.org
mtllib road1.mtl
o ROAD.004
v -132.107849 -6.448889 -24.735088
v 129.161545 -6.448889 -24.735088
v -132.107849 -6.448886 21.936790
v -132.107849 -3.696367 -24.735088
v -132.107849 -3.696364 21.936790
v 129.161545 -3.696367 -24.735088
v 129.161545 -3.696364 21.936790
v 129.161545 -6.448886 21.936790
vn -0.0000 -0.0000 -1.0000
vn -0.0000 -1.0000 -0.0000
vn -1.0000 -0.0000 -0.0000
vn -0.0000 1.0000 -0.0000
vn 1.0000 -0.0000 -0.0000
vn -0.0000 -0.0000 1.0000
vt 0.859989 -0.893120
vt 0.859989 -0.883109
vt 0.870000 -0.883109
vt 0.870000 -0.893120
s 0
usemtl Material.013
f 4/1/1 6/2/1 2/3/1 1/4/1
f 1/1/2 2/2/2 8/3/2 3/4/2
f 4/1/3 1/2/3 3/3/3 5/4/3
f 5/1/4 7/2/4 6/3/4 4/4/4
f 2/1/5 6/2/5 7/3/5 8/4/5
f 3/1/6 8/2/6 7/3/6 5/4/6
