# Blender 4.0.2
# www.blender.org
mtllib store.mtl
o ROAD.404
v -115.901314 -3.890041 43.943405
v -70.525665 -3.890041 43.943394
v -115.901314 -3.890039 102.283508
v -115.901314 -1.713920 43.943405
v -115.901314 -1.713920 47.140495
v -113.213844 -1.713920 43.943405
v -115.028694 -1.551885 45.065319
v -115.028694 13.712262 45.065319
v -115.028694 -1.551885 48.139446
v -112.444603 -1.551885 45.065319
v -112.444603 -1.551885 45.496239
v -112.444603 13.712262 45.065319
v -99.978767 -1.551885 45.065319
v -99.978767 -1.551885 45.635582
v -100.249367 -1.713920 43.943405
v -87.512932 -1.551885 45.065319
v -99.978767 13.712262 45.065319
v -99.978767 -1.551885 45.496239
v -99.978767 13.712262 45.496239
v -112.444603 13.712262 45.496239
v -87.512932 13.712262 45.065319
v -99.978767 13.712262 45.635590
v -100.249367 13.885797 43.943405
v -87.284904 13.885797 43.943405
v -113.213844 13.885797 43.943405
v -115.901314 13.885797 43.943405
v -115.901314 13.885798 47.140495
v -115.901314 14.931891 43.943405
v -115.901314 14.931894 102.283508
v -70.525665 14.931891 43.943405
v -115.901314 15.990660 43.943405
v -115.901314 15.990662 102.283508
v -67.957123 23.583569 43.943405
v -115.901314 16.558018 43.943405
v -67.957123 24.150925 43.943405
v -115.901314 16.558018 49.474251
v -115.901314 16.558018 50.084610
v -67.957123 24.150925 49.474251
v -115.901314 16.386711 49.474251
v -115.901314 16.386711 50.084610
v -67.957123 23.979618 49.474251
v -67.957123 23.979618 50.084610
v -67.957123 24.150925 50.084610
v -67.957123 24.150925 57.265400
v -67.957123 24.150925 57.875755
v -115.901314 16.558018 57.265400
v -67.957123 23.979618 57.265400
v -67.957123 23.979618 57.875755
v -115.901314 16.386711 57.265400
v -115.901314 16.386711 57.875755
v -115.901314 16.558018 57.875755
v -115.901314 16.558018 65.056541
v -115.901314 16.558018 65.666901
v -67.957123 24.150925 65.056541
v -115.901314 16.386711 65.056541
v -115.901314 16.386711 65.666901
v -67.957123 23.979618 65.056541
v -67.957123 23.979618 65.666901
v -67.957123 24.150925 65.666901
v -67.957123 24.150925 72.847694
v -67.957123 24.150925 73.458046
v -115.901314 16.558018 72.847694
v -67.957123 23.979618 72.847694
v -67.957123 23.979618 73.458046
v -115.901314 16.386711 72.847694
v -115.901314 16.386711 73.458046
v -115.901314 16.558018 73.458046
v -115.901314 16.558018 80.638840
v -115.901314 16.558018 81.249199
v -67.957123 24.150925 80.638840
v -115.901314 16.386711 80.638840
v -115.901314 16.386711 81.249199
v -67.957123 23.979618 80.638840
v -67.957123 23.979618 81.249199
v -67.957123 24.150925 81.249199
v -67.957123 24.150928 88.429993
v -67.957123 24.150928 89.040344
v -115.901314 16.558022 88.429993
v -67.957123 23.979618 88.429993
v -67.957123 23.979618 89.040344
v -115.901314 16.386711 88.429993
v -115.901314 16.386711 89.040344
v -115.901314 16.558022 89.040344
v -115.901314 16.558022 96.221138
v -115.901314 16.558022 96.831497
v -67.957123 24.150928 96.221138
v -115.901314 16.386711 96.221138
v -115.901314 16.386711 96.831497
v -67.957123 23.979618 96.221138
v -67.957123 23.979618 96.831497
v -67.957123 24.150928 96.831497
v -67.957123 24.150928 102.283508
v -115.901314 16.558018 102.283508
v -67.957123 23.583569 102.283508
v -70.525665 14.931894 102.283508
v -70.525665 13.885799 102.283508
v -70.525665 13.885799 98.998367
v -74.320435 13.885799 102.283508
v -71.398277 13.712264 101.161591
v -71.398277 -1.551883 101.161591
v -71.398277 13.712264 98.002792
v -75.047089 13.712264 101.161591
v -75.047089 -1.551883 101.161591
v -87.512917 13.712264 101.161591
v -75.047089 13.712264 100.620094
v -75.047089 -1.551883 100.620094
v -87.512917 13.712264 100.620094
v -87.512917 -1.551883 100.620094
v -87.512917 -1.551883 101.161591
v -99.978745 -1.551883 101.005310
v -87.512917 -1.551883 100.711624
v -87.284897 -1.713919 102.283508
v -74.320435 -1.713919 102.283508
v -100.249367 -1.713919 102.120972
v -113.213844 -1.713919 102.120972
v -112.444580 -1.551883 101.005310
v -115.901314 -1.713919 102.283508
v -115.901314 -1.713918 98.998367
v -115.028694 -1.551883 101.161591
v -115.028694 13.712264 101.161591
v -115.028694 -1.551883 98.002792
v -115.028694 -1.551884 85.536957
v -115.028694 13.712264 98.002792
v -114.320091 -1.551883 98.002792
v -114.320091 -1.551884 85.536957
v -114.320091 13.712264 98.002792
v -114.320091 13.712264 85.536957
v -115.028694 13.712264 85.536957
v -114.351204 13.712264 85.536957
v -115.901314 13.885798 86.033890
v -115.028694 13.712263 73.071114
v -115.028694 -1.551884 73.071114
v -114.351204 13.712263 73.071114
v -114.320091 13.712263 73.071114
v -115.028694 13.712263 60.605282
v -115.901314 13.885798 73.069427
v -115.901314 13.885798 60.104954
v -115.028694 -1.551885 60.605282
v -114.351204 13.712263 60.605282
v -115.028694 13.712262 48.139446
v -114.320091 13.712263 60.605282
v -114.320091 -1.551885 60.605282
v -114.320091 -1.551884 73.071114
v -114.351204 13.712262 48.139446
v -114.351204 -1.551885 48.139446
v -114.351204 -1.551885 60.605282
v -115.901314 -1.713920 60.104954
v -115.901314 -1.713920 73.069427
v -115.901314 -1.713919 86.033890
v -114.351204 -1.551884 73.071114
v -114.351204 -1.551884 85.536957
v -115.901314 13.885799 98.998367
v -115.901314 13.885799 102.283508
v -113.213844 13.885799 102.120972
v -100.249367 13.885799 102.120972
v -112.444580 13.712264 101.005310
v -99.978745 13.712264 101.005310
v -112.444580 13.712264 100.717270
v -99.978745 13.712264 100.717270
v -112.444580 -1.551883 100.717270
v -99.978745 -1.551883 100.717270
v -99.978745 13.712264 100.711624
v -87.512917 13.712264 100.711624
v -99.978745 -1.551883 100.711624
v -87.284897 13.885799 102.283508
v -70.525665 -1.713919 102.283508
v -70.525665 -3.890039 102.283508
v -70.525665 -1.713918 98.998367
v -70.525665 -1.713919 86.033890
v -71.398277 -1.551883 98.002792
v -71.398277 -1.662183 85.536957
v -71.901329 -1.551883 98.002792
v -71.901329 -1.551884 85.536957
v -71.901329 13.712264 98.002792
v -71.901329 13.712264 85.536957
v -71.398277 13.712264 85.536957
v -71.398277 13.712263 73.071114
v -70.125069 13.712264 85.536957
v -70.525665 13.885798 86.033890
v -70.525665 13.885798 73.069427
v -70.525665 13.885798 60.104954
v -70.525665 13.885798 47.140495
v -71.398277 13.712263 60.605282
v -71.398277 13.712262 48.139446
v -71.945763 13.712263 60.605282
v -71.875717 13.712263 60.605282
v -71.398277 -1.551885 60.605282
v -70.525665 -1.713920 60.104954
v -71.398277 -1.551885 48.139446
v -71.398277 -1.616683 73.071114
v -71.945763 -1.551885 60.605282
v -71.875717 -1.551885 60.605282
v -71.875717 -1.551884 73.071114
v -71.875717 13.712263 73.071114
v -71.945763 -1.551885 48.139446
v -71.945763 13.712262 48.139446
v -70.125069 -3.833299 73.071114
v -70.525665 -1.713920 73.069427
v -70.125069 13.712263 73.071114
v -70.125069 -3.833298 85.536957
v -70.125069 -1.399477 74.118248
v -58.972980 -3.833299 73.696518
v -58.972980 -2.942698 74.118248
v -58.972980 -3.833298 84.911552
v -58.972980 -2.942697 84.489830
v -70.125069 -1.399477 84.489830
v -70.125069 12.430075 84.489830
v -72.219269 -1.399477 84.489830
v -72.219269 -1.399477 74.118248
v -72.219269 12.430075 84.489830
v -72.219269 12.430076 74.118248
v -70.125069 12.430076 74.118248
v -70.525665 -1.713920 47.140495
v -71.398277 -1.551885 45.065319
v -71.398277 13.712262 45.065319
v -75.047089 -1.551885 45.065319
v -70.525665 -1.713920 43.943394
v -74.320435 -1.713920 43.943394
v -87.284904 -1.713920 43.943394
v -75.047089 13.712262 45.065319
v -75.047089 -1.551885 45.496239
v -75.047089 13.712262 45.496239
v -87.512932 -1.551885 45.496239
v -87.512932 13.712262 45.496239
v -74.320435 13.885797 43.943405
v -70.525665 13.885797 43.943405
v -87.512932 13.712262 45.635590
v -87.512932 -1.551885 45.635582
vn -0.0000 -0.0000 -1.0000
vn -0.0000 -1.0000 -0.0000
vn -1.0000 -0.0000 -0.0000
vn -0.1826 0.9832 -0.0000
vn -0.0000 0.9897 -0.1429
vn -0.0000 1.0000 -0.0000
vn 1.0000 -0.0000 -0.0000
vn -0.0000 -0.9882 -0.1529
vn -0.1950 -0.9808 -0.0000
vn -0.1564 0.9877 -0.0000
vn -0.0000 -0.0000 1.0000
vn 0.9586 -0.2846 -0.0000
vn -0.0000 -0.0710 0.9975
vn 0.1950 -0.9808 -0.0000
vn -0.0000 -0.9882 0.1529
vn -0.0000 0.9897 0.1429
vn -0.0018 0.9897 0.1433
vn -0.0000 0.0342 0.9994
vn -0.0000 0.9896 0.1437
vn 0.0091 0.9887 0.1498
vn 0.0604 -0.0000 0.9982
vn 0.0097 -0.9870 0.1602
vn -0.0000 -0.9881 0.1537
vn -0.0019 -0.9882 0.1532
vn 0.1826 0.9832 -0.0000
vn 0.1252 0.9921 -0.0043
vn 0.1090 0.9940 -0.0044
vn 0.1477 0.9890 0.0025
vn 0.0677 0.9977 0.0026
vn 0.0845 0.9964 0.0018
vn -0.8649 -0.5019 -0.0009
vn 0.0535 0.4036 -0.9134
vn 0.0535 0.4036 0.9134
vn 0.1371 0.9906 -0.0000
vt 0.851058 -0.557635
vt 0.851216 -0.557635
vt 0.851216 -0.557718
vt 0.887929 -0.940773
vt 0.852464 -0.557635
vt 0.851763 -0.557793
vt 0.851450 -0.557793
vt 0.852464 -0.559041
vt 0.851058 -0.559041
vt 0.851058 -0.558883
vt 0.851138 -0.558883
vt 0.943690 -0.112071
vt 0.699330 -0.389286
vt 0.699330 -0.389286
vt 0.699330 -0.389286
vt 0.699330 -0.389286
vt 0.852464 -0.558883
vt 0.699330 -0.389286
vt 0.699330 -0.389285
vt 0.699330 -0.389285
vt 0.699330 -0.389285
vt 0.699330 -0.389285
vt 0.699330 -0.389286
vt 0.699330 -0.389286
vt 0.699464 -0.379041
vt 0.699493 -0.379041
vt 0.699493 -0.379069
vt 0.699464 -0.379069
vt 0.753997 -0.026447
vt 0.753997 -0.027751
vt 0.750331 -0.027751
vt 0.750331 -0.026447
vt 0.852346 -0.557635
vt 0.852346 -0.557718
vt 0.084539 -0.940773
vt 0.699330 -0.389286
vt 0.852075 -0.557754
vt 0.851763 -0.557754
vt 0.499245 -0.915461
vt 0.727131 -0.365867
vt 0.704068 -0.365867
vt 0.704068 -0.342803
vt 0.727131 -0.342803
vt 0.709667 -0.348809
vt 0.722667 -0.348809
vt 0.722667 -0.350024
vt 1.000000 -0.093452
vt 0.722667 -0.361809
vt 0.709667 -0.361809
vt 0.722667 -0.358858
vt 0.722667 -0.360458
vt 0.000000 -1.000000
vt 0.706254 -0.365867
vt 0.706254 -0.342803
vt 0.723587 -0.477468
vt 0.723828 -0.477468
vt 0.723828 -0.500532
vt 0.723587 -0.500532
vt 0.706495 -0.342803
vt 0.709334 -0.342803
vt 0.709334 -0.365867
vt 0.706495 -0.365867
vt 0.722667 -0.350160
vt 1.000000 -0.103914
vt 0.722667 -0.355386
vt 0.722667 -0.356986
vt 0.726667 -0.477468
vt 0.726908 -0.477468
vt 0.726908 -0.500532
vt 0.726667 -0.500532
vt 0.709575 -0.342803
vt 0.712413 -0.342803
vt 0.712413 -0.365867
vt 0.709575 -0.365867
vt 0.729746 -0.477468
vt 0.729988 -0.477468
vt 0.729988 -0.500532
vt 0.729746 -0.500532
vt 0.712655 -0.342803
vt 0.715493 -0.342803
vt 0.715493 -0.365867
vt 0.712655 -0.365867
vt 0.732826 -0.477468
vt 0.733068 -0.477468
vt 0.733068 -0.500532
vt 0.732826 -0.500532
vt 0.715735 -0.342803
vt 0.718573 -0.342803
vt 0.718573 -0.365867
vt 0.715735 -0.365867
vt 0.735906 -0.477468
vt 0.736147 -0.477468
vt 0.736147 -0.500532
vt 0.735906 -0.500532
vt 0.718814 -0.342803
vt 0.721654 -0.342803
vt 0.721654 -0.365867
vt 0.718814 -0.365867
vt 0.738987 -0.477468
vt 0.739228 -0.477468
vt 0.739228 -0.500532
vt 0.738987 -0.500532
vt 0.721895 -0.342803
vt 0.724733 -0.342803
vt 0.724733 -0.365867
vt 0.721895 -0.365867
vt 0.742067 -0.477468
vt 0.742308 -0.477468
vt 0.742308 -0.500532
vt 0.742067 -0.500532
vt 0.724975 -0.342803
vt 0.724975 -0.365867
vt 0.851177 -0.558522
vt 0.851177 -0.558120
vt 0.852464 -0.558922
vt 0.852387 -0.558922
vt 0.054801 -0.084539
vt 0.851177 -0.559041
vt 0.699330 -0.389285
vt 0.699330 -0.389285
vt 0.750456 -0.025143
vt 0.750456 -0.023839
vt 0.754123 -0.023839
vt 0.754123 -0.025143
vt 0.852307 -0.558522
vt 0.852307 -0.558923
vt 0.852307 -0.558120
vt 0.852307 -0.557718
vt 0.852307 -0.557635
vt 0.699330 -0.389285
vt 0.753238 -0.023969
vt 0.754252 -0.023969
vt 0.754252 -0.027635
vt 0.753238 -0.027635
vt 0.699330 -0.389286
vt 0.699330 -0.389286
vt 0.751209 -0.023969
vt 0.752223 -0.023969
vt 0.752223 -0.027635
vt 0.751209 -0.027635
vt 0.750195 -0.023969
vt 0.750195 -0.027635
vt 0.699653 -0.389497
vt 0.699274 -0.389497
vt 0.699274 -0.389118
vt 0.699653 -0.389118
vt 0.750456 -0.027751
vt 0.750456 -0.026447
vt 0.754123 -0.026447
vt 0.754123 -0.027751
vt 0.852307 -0.559041
vt 0.754252 -0.027510
vt 0.753238 -0.027510
vt 0.753238 -0.023843
vt 0.754252 -0.023843
vt 0.752223 -0.027510
vt 0.751209 -0.027510
vt 0.751209 -0.023843
vt 0.752223 -0.023843
vt 0.750195 -0.027510
vt 0.750195 -0.023843
vt 0.000000 -0.000000
vt 1.000000 -0.000000
vt 1.000000 -1.000000
vt 0.815997 -0.565331
vt 0.834667 -0.565331
vt 0.834667 -0.584002
vt 0.815997 -0.584002
vt 0.722450 -0.002793
vt 0.722763 -0.002793
vt 0.722763 -0.003922
vt 0.722450 -0.003922
vt 0.753997 -0.023839
vt 0.753997 -0.025143
vt 0.750331 -0.025143
vt 0.750331 -0.023839
vt 0.852346 -0.558923
vt 0.852346 -0.559041
s 0
usemtl Material.013
f 217/1/1 2/2/1 1/3/1 4/4/1 6/1/1 15/5/1 219/6/1 218/7/1
f 1/5/2 2/8/2 167/9/2 3/1/2
f 4/9/3 1/10/3 3/11/3 117/12/3 118/13/3 149/14/3 148/15/3 147/16/3 5/5/3
f 7/8/4 4/9/4 5/1/4 9/5/4
f 10/8/5 6/9/5 4/17/5 7/17/5
f 10/16/1 7/13/1 8/14/1 12/15/1
f 8/18/3 7/19/3 9/20/3 140/15/3
f 10/21/6 11/22/6 18/23/6 13/24/6
f 12/25/7 20/26/7 11/27/7 10/28/7
f 13/8/5 15/9/5 6/1/5 10/5/5
f 13/21/6 14/22/6 228/23/6 16/24/6
f 17/21/7 22/22/7 14/23/7 13/24/7
f 16/8/5 219/9/5 15/1/5 13/5/5
f 13/21/3 18/22/3 19/23/3 17/24/3
f 18/29/1 11/30/1 20/31/1 19/32/1
f 17/21/2 19/22/2 20/23/2 12/24/2
f 17/8/8 23/9/8 24/1/8 21/5/8
f 21/21/2 227/22/2 22/23/2 17/24/2
f 12/8/8 25/9/8 23/1/8 17/5/8
f 26/33/1 28/5/1 30/34/1 226/35/1 225/22/1 24/36/1 23/36/1 25/22/1
f 8/8/8 26/9/8 25/1/8 12/5/8
f 140/8/9 27/9/9 26/1/9 8/5/9
f 153/5/3 29/37/3 28/38/3 26/39/3 27/33/3 137/5/3 136/34/3 130/35/3 152/22/3
f 29/40/3 32/41/3 31/42/3 28/43/3
f 28/40/1 31/41/1 33/42/1 30/43/1
f 32/44/3 93/45/3 85/46/3 84/47/3 83/44/3 78/45/3 69/48/3 68/49/3 67/50/3 62/51/3 53/49/3 52/52/3 51/44/3 46/45/3 37/48/3 36/49/3 34/44/3 31/46/3
f 31/44/1 34/45/1 35/48/1 33/49/1
f 38/53/10 35/41/10 34/42/10 36/54/10
f 37/44/7 40/45/7 39/48/7 36/49/7
f 36/44/11 39/45/11 41/48/11 38/49/11
f 39/55/10 40/56/10 42/57/10 41/58/10
f 38/44/3 41/45/3 42/48/3 43/49/3
f 43/44/1 42/45/1 40/48/1 37/49/1
f 37/59/10 46/60/10 44/61/10 43/62/10
f 33/50/7 35/51/7 38/49/7 43/52/7 44/44/7 45/45/7 54/48/7 59/49/7 60/44/7 61/46/7 70/63/7 75/64/7 76/65/7 77/66/7 86/49/7 91/52/7 92/59/7 94/60/7
f 44/44/3 47/45/3 48/48/3 45/49/3
f 46/44/11 49/45/11 47/48/11 44/49/11
f 49/67/10 50/68/10 48/69/10 47/70/10
f 51/44/7 50/45/7 49/48/7 46/49/7
f 45/44/1 48/45/1 50/48/1 51/49/1
f 51/71/10 52/72/10 54/73/10 45/74/10
f 53/44/7 56/45/7 55/48/7 52/49/7
f 52/44/11 55/45/11 57/48/11 54/49/11
f 55/75/10 56/76/10 58/77/10 57/78/10
f 54/44/3 57/45/3 58/48/3 59/49/3
f 59/44/1 58/45/1 56/48/1 53/49/1
f 53/79/10 62/80/10 60/81/10 59/82/10
f 60/44/3 63/45/3 64/48/3 61/49/3
f 62/44/11 65/45/11 63/48/11 60/49/11
f 65/83/10 66/84/10 64/85/10 63/86/10
f 67/44/7 66/45/7 65/48/7 62/49/7
f 61/44/1 64/45/1 66/48/1 67/49/1
f 67/87/10 68/88/10 70/89/10 61/90/10
f 69/44/7 72/45/7 71/48/7 68/49/7
f 68/44/11 71/45/11 73/48/11 70/49/11
f 71/91/10 72/92/10 74/93/10 73/94/10
f 70/44/3 73/45/3 74/48/3 75/49/3
f 75/44/1 74/45/1 72/48/1 69/49/1
f 69/95/10 78/96/10 76/97/10 75/98/10
f 76/44/3 79/45/3 80/48/3 77/49/3
f 78/44/11 81/45/11 79/48/11 76/49/11
f 81/99/10 82/100/10 80/101/10 79/102/10
f 83/44/7 82/45/7 81/48/7 78/49/7
f 77/44/1 80/45/1 82/48/1 83/49/1
f 83/103/10 84/104/10 86/105/10 77/106/10
f 85/44/7 88/45/7 87/48/7 84/49/7
f 84/44/11 87/45/11 89/48/11 86/49/11
f 87/107/10 88/108/10 90/109/10 89/110/10
f 86/44/3 89/45/3 90/48/3 91/49/3
f 91/44/1 90/45/1 88/48/1 85/49/1
f 85/111/10 93/43/10 92/40/10 91/112/10
f 94/44/11 92/45/11 93/48/11 32/49/11
f 95/40/11 94/41/11 32/42/11 29/43/11
f 30/40/12 33/41/12 94/42/12 95/43/12
f 96/113/13 95/9/13 29/1/13 153/114/13 154/53/13 155/41/13 165/42/13 98/54/13
f 226/115/7 30/8/7 95/116/7 96/117/7 97/9/7 179/10/7 180/11/7 181/12/7 182/13/7
f 101/8/14 97/9/14 96/118/14 99/118/14
f 99/8/15 96/9/15 98/1/15 102/5/15
f 103/119/11 100/119/11 99/120/11 102/120/11
f 99/22/7 100/36/7 170/36/7 101/22/7
f 102/8/3 105/9/3 106/1/3 103/5/3
f 102/8/15 98/9/15 165/1/15 104/5/15
f 104/21/2 107/22/2 105/23/2 102/24/2
f 108/121/11 106/122/11 105/123/11 107/124/11
f 109/21/7 108/22/7 107/23/7 104/24/7
f 103/21/6 106/22/6 108/23/6 109/24/6
f 109/125/16 112/125/16 113/126/16 103/126/16
f 104/21/3 163/22/3 111/23/3 109/24/3
f 110/127/17 114/127/17 112/125/17 109/125/17
f 109/21/6 111/22/6 164/23/6 110/24/6
f 117/5/18 3/8/18 167/125/18 166/127/18 113/119/18 112/119/18 114/120/18 115/120/18
f 116/128/19 115/128/19 114/127/19 110/127/19
f 119/129/20 117/129/20 115/128/20 116/128/20
f 121/8/4 118/9/4 117/1/4 119/5/4
f 121/130/3 119/130/3 120/36/3 123/36/3
f 120/13/21 119/14/21 116/15/21 156/16/21
f 122/8/4 149/9/4 118/1/4 121/5/4
f 121/21/6 124/22/6 125/23/6 122/24/6
f 123/21/1 126/22/1 124/23/1 121/24/1
f 125/131/3 124/132/3 126/133/3 127/134/3
f 128/21/2 127/22/2 126/23/2 123/24/2
f 122/8/11 125/9/11 127/1/11 128/5/11
f 128/21/1 129/22/1 151/23/1 122/24/1
f 131/21/2 133/22/2 129/23/2 128/24/2
f 128/8/9 130/9/9 136/1/9 131/5/9
f 123/8/9 152/9/9 130/1/9 128/5/9
f 132/21/11 150/22/11 133/23/11 131/24/11
f 131/135/1 134/135/1 143/23/1 132/24/1
f 135/136/2 141/136/2 134/135/2 131/135/2
f 131/8/9 136/9/9 137/1/9 135/5/9
f 135/8/9 137/9/9 27/1/9 140/5/9
f 135/21/1 139/22/1 146/23/1 138/24/1
f 138/21/11 142/22/11 141/136/11 135/136/11
f 140/21/2 144/22/2 139/23/2 135/24/2
f 142/137/3 143/138/3 134/139/3 141/140/3
f 132/21/6 143/22/6 142/23/6 138/24/6
f 9/21/11 145/22/11 144/23/11 140/24/11
f 145/141/3 146/137/3 139/140/3 144/142/3
f 138/21/6 146/22/6 145/23/6 9/24/6
f 9/8/4 5/9/4 147/1/4 138/5/4
f 138/8/4 147/9/4 148/1/4 132/5/4
f 132/8/4 148/9/4 149/1/4 122/5/4
f 150/138/3 151/131/3 129/134/3 133/139/3
f 122/21/6 151/22/6 150/23/6 132/24/6
f 120/8/9 153/9/9 152/1/9 123/5/9
f 156/8/22 154/9/22 153/1/22 120/5/22
f 157/8/23 155/9/23 154/1/23 156/5/23
f 116/143/7 160/144/7 158/145/7 156/146/7
f 156/143/2 158/144/2 159/145/2 157/146/2
f 160/147/11 161/148/11 159/149/11 158/150/11
f 110/143/6 161/144/6 160/145/6 116/146/6
f 157/143/3 159/144/3 161/145/3 110/146/3
f 157/21/2 162/22/2 163/23/2 104/24/2
f 110/21/7 164/22/7 162/23/7 157/24/7
f 104/8/24 165/9/24 155/1/24 157/5/24
f 164/148/11 111/121/11 163/124/11 162/149/11
f 103/126/16 113/126/16 166/151/16 100/151/16
f 2/1/7 217/5/7 213/6/7 188/7/7 198/18/7 169/19/7 168/20/7 166/15/7 167/5/7
f 100/8/25 166/9/25 168/1/25 170/5/25
f 170/8/26 168/9/26 169/1/26 171/5/26
f 171/21/27 173/22/27 172/23/27 170/24/27
f 170/21/1 172/22/1 174/23/1 101/24/1
f 172/152/7 173/153/7 175/154/7 174/155/7
f 101/21/2 174/22/2 175/23/2 176/24/2
f 176/21/11 175/22/11 173/23/11 171/24/11
f 177/8/14 180/9/14 179/1/14 176/5/14
f 176/8/6 178/9/6 199/1/6 177/5/6
f 176/8/14 179/9/14 97/1/14 101/5/14
f 171/7/11 200/7/11 178/1/11 176/5/11
f 183/8/14 181/9/14 180/1/14 177/5/14
f 184/8/14 182/9/14 181/1/14 183/5/14
f 183/21/2 185/22/2 196/23/2 184/24/2
f 177/21/2 194/22/2 186/23/2 183/24/2
f 187/21/1 191/22/1 185/23/1 183/24/1
f 183/21/11 186/22/11 192/23/11 187/24/11
f 187/8/25 188/9/25 213/1/25 189/5/25
f 190/8/28 198/9/28 188/1/28 187/5/28
f 189/21/6 195/22/6 191/23/6 187/24/6
f 187/21/29 192/22/29 193/23/29 190/24/29
f 193/156/7 192/157/7 186/158/7 194/159/7
f 190/8/1 193/9/1 194/1/1 177/5/1
f 191/157/7 195/160/7 196/161/7 185/158/7
f 184/8/11 196/9/11 195/1/11 189/5/11
f 177/8/1 199/9/1 197/6/1 190/6/1
f 171/8/30 169/9/30 198/1/30 190/5/30
f 190/6/31 197/6/31 200/7/31 171/7/31
f 199/8/7 212/9/7 201/1/7 197/5/7
f 197/162/2 202/163/2 204/164/2 200/52/2
f 201/165/32 203/166/32 202/167/32 197/168/32
f 202/8/7 203/9/7 205/1/7 204/5/7
f 200/165/33 204/166/33 205/167/33 206/168/33
f 206/165/34 205/166/34 203/167/34 201/168/34
f 201/8/6 209/9/6 208/1/6 206/5/6
f 200/8/7 206/9/7 207/1/7 178/5/7
f 206/8/1 208/9/1 210/1/1 207/5/1
f 208/169/7 209/170/7 211/171/7 210/172/7
f 207/8/2 210/9/2 211/1/2 212/5/2
f 212/8/11 211/9/11 209/1/11 201/5/11
f 178/8/7 207/9/7 212/1/7 199/5/7
f 189/8/25 213/9/25 217/1/25 214/5/25
f 189/15/7 214/18/7 215/21/7 184/119/7
f 220/119/1 215/119/1 214/120/1 216/120/1
f 214/8/5 217/9/5 218/1/5 216/5/5
f 216/8/5 218/9/5 219/1/5 16/5/5
f 216/21/3 221/22/3 222/23/3 220/24/3
f 16/21/6 223/22/6 221/23/6 216/24/6
f 221/173/1 223/174/1 224/175/1 222/176/1
f 21/21/7 224/22/7 223/23/7 16/24/7
f 220/21/2 222/22/2 224/23/2 21/24/2
f 220/177/8 225/177/8 226/178/8 215/178/8
f 21/8/8 24/9/8 225/177/8 220/177/8
f 215/8/14 226/9/14 182/1/14 184/5/14
f 228/174/1 14/29/1 22/32/1 227/175/1
f 16/21/3 228/22/3 227/23/3 21/24/3
