# Blender 4.0.2
# www.blender.org
mtllib tree2.mtl
o ROAD.428
v -91.441795 20.047401 29.725863
v -90.855896 17.268970 29.269083
v -91.053017 21.635433 31.947594
v -89.730705 21.335606 28.019419
v -89.848358 19.711506 27.569439
v -90.278122 18.158192 28.046761
v -91.360970 17.383495 30.769506
v -91.600433 18.458019 31.974928
v -91.482780 20.082115 32.424919
v -90.475243 22.524654 30.725273
v -89.970169 22.410130 29.224840
v -87.508217 23.569202 29.457832
v -87.120789 21.830582 27.507420
v -88.325447 23.754509 31.885574
v -84.996338 23.081890 30.335838
v -85.813568 23.267193 32.763573
v -83.393974 21.134327 31.523485
v -84.608902 21.343269 28.385418
v -84.799232 18.715424 27.657328
v -83.154518 20.059803 30.318064
v -83.272148 18.435703 29.868074
v -83.313164 18.470421 32.567131
v -83.701935 16.882389 30.345406
v -84.279709 15.993166 31.567719
v -84.906601 18.806313 34.723553
v -84.476807 20.359627 34.246231
v -84.784782 16.107689 33.068153
v -85.024223 17.182217 34.273575
v -83.899040 21.248852 33.023911
v -87.634155 16.687241 34.785572
v -87.246719 14.948619 32.835159
v -87.443825 19.315083 35.513660
v -90.146042 17.174553 33.907574
v -89.758614 15.435932 31.957161
v -89.955711 19.802395 34.635666
v -89.260307 22.315716 33.863331
v -86.748413 21.828400 34.741329
v -88.941376 15.250628 29.529419
v -88.006516 16.689419 27.551664
v -86.429497 14.763314 30.407415
v -85.494644 16.202106 28.429661
v -87.311119 19.202740 26.779331
v -89.661644 11.259407 31.868057
v -88.973236 12.160823 30.535822
v -89.203857 11.165603 30.212620
v -89.411812 10.156778 30.513624
v -89.481033 9.497674 32.333874
v -89.315849 10.099150 33.157841
v -89.085258 11.094368 33.481041
v -88.771400 12.740286 32.369785
v -88.808060 12.762298 31.359787
v -88.877296 12.103192 33.180027
v -89.517685 9.519687 31.323875
v -88.196198 8.174991 31.124352
v -88.223267 9.216477 29.634085
v -88.150475 8.147530 32.384327
v -86.906075 7.852086 31.071386
v -88.196198 -6.395409 31.124352
v -88.150475 -6.422871 32.384327
v -86.906075 -6.718315 31.071386
v -86.860344 -6.745775 32.331371
v -86.860344 7.824625 32.331371
v -86.394699 8.704416 33.843826
v -85.100273 8.401207 32.154034
v -84.935089 9.002682 32.978001
v -84.246712 9.904099 31.645765
v -85.136925 8.423220 31.144039
v -85.031052 9.060312 30.333796
v -86.549965 8.797665 29.565399
v -84.823097 10.069137 30.032784
v -84.592476 11.064356 30.355984
v -86.213478 10.429976 29.078358
v -87.886780 10.848789 29.147043
v -85.840340 12.040276 29.601313
v -87.513634 12.459088 29.669998
v -85.573067 13.013481 30.934517
v -87.246376 13.432295 31.003202
v -85.513771 12.977865 32.568729
v -84.427299 11.665831 31.179951
v -84.390640 11.643819 32.189945
v -84.496529 11.006726 33.000198
v -85.685074 11.947026 33.879738
v -84.704483 9.997901 33.301205
v -86.021561 10.314714 34.366779
v -87.694870 10.733528 34.435467
v -88.067993 9.123229 33.912510
v -87.358383 12.365840 33.948425
v -87.187065 13.396678 32.637413
v -91.346359 22.703495 31.040693
v -90.700798 23.748707 32.661381
v -90.331650 20.868958 31.215054
v -90.974533 24.616627 31.856035
v -91.048317 23.141201 29.106630
v -90.792007 21.924980 29.262930
v -90.518265 21.057056 30.068275
v -90.303482 21.432518 32.265232
v -90.444466 22.532486 32.817680
v -91.161133 24.804729 30.709257
v -91.189323 24.241165 29.659079
v -89.892334 25.458191 28.648111
v -89.664192 23.678410 27.754232
v -89.846718 26.370056 30.347338
v -87.950806 25.889709 28.393948
v -87.905190 26.801575 30.093174
v -86.106331 25.370895 28.993673
v -87.722664 24.109928 27.500069
v -87.307930 22.142040 27.752966
v -85.965340 24.270931 28.441227
v -85.709023 23.054710 28.597525
v -85.063446 24.099918 30.218210
v -85.435280 22.186787 29.402870
v -85.248680 21.998684 30.549648
v -85.617805 24.878437 31.995975
v -85.891556 25.746357 31.190630
v -85.220490 22.562248 31.599827
v -85.361481 23.662216 32.152275
v -86.078148 25.934460 30.043852
v -86.745613 23.125004 33.504673
v -86.517479 21.345222 32.610794
v -87.160355 25.092892 33.251778
v -88.687141 22.693485 33.758839
v -88.459000 20.913704 32.864956
v -89.101883 24.661373 33.505939
v -89.544792 26.065701 32.202858
v -87.603264 26.497219 31.948698
v -88.504608 20.001839 31.165731
v -88.806534 20.306198 29.310207
v -86.563080 20.433357 30.911568
v -86.865005 20.737717 29.056044
v -89.249466 21.710522 28.007130
v -89.921455 14.119491 26.677652
v -87.643150 16.985466 26.326593
v -86.598686 15.114430 25.918537
v -86.615601 12.906515 26.159710
v -87.687416 11.205066 26.957981
v -89.404778 10.659980 28.008453
v -91.111656 11.479462 28.909866
v -92.156143 13.350495 29.317911
v -91.067398 17.259861 28.278469
v -89.350052 17.804947 27.228006
v -92.139229 15.558413 29.076748
v -92.421791 16.673656 32.440628
v -92.449142 13.101175 32.830841
v -90.687538 19.426659 31.148993
v -90.661232 17.039242 35.484398
v -90.688583 13.466760 35.874622
v -88.926979 19.792244 34.192772
v -87.530014 16.515526 37.045452
v -84.224152 15.302548 36.527512
v -87.546921 14.307610 37.286625
v -86.458176 18.216972 36.247181
v -84.740837 18.762058 35.196709
v -83.033936 17.942577 34.295296
v -86.148254 20.674210 32.493080
v -87.908821 20.308628 29.449301
v -83.386436 19.348263 31.034559
v -85.147011 18.982677 27.990791
v -81.696449 16.320866 30.374319
v -83.457016 15.955280 27.330540
v -81.723801 12.748382 30.764532
v -81.989464 16.071545 33.887249
v -82.006371 13.863628 34.128414
v -83.078201 12.162179 34.926693
v -83.458054 9.995380 32.056171
v -84.795540 11.617094 35.977154
v -86.502441 12.436575 36.878567
v -86.236778 9.113414 33.755859
v -87.997353 8.747828 30.712082
v -88.998596 10.439363 35.214378
v -90.759155 10.073778 32.170601
v -85.218628 9.629795 29.012402
v -83.484375 12.382797 27.720766
vn -0.9406 -0.1482 -0.3053
vn -0.8681 -0.1033 -0.4855
vn -0.9043 0.4061 -0.1320
vn -0.9650 0.2615 -0.0180
vn -0.7807 0.3813 -0.4950
vn -0.7673 0.2223 -0.6016
vn -0.8008 0.0379 -0.5977
vn -0.9889 -0.0793 -0.1258
vn -0.9969 0.0767 -0.0161
vn -0.8341 0.4526 -0.3153
vn -0.4012 0.8931 -0.2032
vn -0.2631 0.6936 -0.6706
vn 0.3467 0.7333 -0.5848
vn 0.1937 0.9810 -0.0097
vn 0.7013 0.6889 0.1835
vn 0.8182 0.5003 -0.2834
vn 0.8247 0.0948 -0.5576
vn 0.3601 0.2248 -0.9054
vn 0.9889 0.0793 0.1258
vn 0.9969 -0.0767 0.0161
vn 0.9043 -0.4061 0.1320
vn 0.9650 -0.2615 0.0180
vn 0.8341 -0.4526 0.3153
vn 0.8008 -0.0379 0.5977
vn 0.7673 -0.2222 0.6016
vn 0.8681 0.1032 0.4855
vn 0.7807 -0.3813 0.4950
vn 0.9407 0.1481 0.3053
vn 0.5072 0.5650 0.6508
vn 0.2351 -0.2753 0.9322
vn 0.2631 -0.6936 0.6706
vn -0.3467 -0.7333 0.5848
vn -0.3601 -0.2248 0.9054
vn -0.8247 -0.0948 0.5576
vn -0.8182 -0.5003 0.2834
vn -0.2488 0.3468 0.9043
vn -0.7394 0.3762 0.5584
vn -0.0423 0.8173 0.5746
vn -0.5855 0.7617 0.2774
vn 0.3269 0.1938 0.9250
vn -0.7013 -0.6889 -0.1835
vn -0.1937 -0.9810 0.0097
vn 0.0423 -0.8173 -0.5746
vn -0.5072 -0.5650 -0.6508
vn 0.5855 -0.7617 -0.2774
vn 0.4013 -0.8931 0.2032
vn 0.2488 -0.3468 -0.9043
vn 0.7394 -0.3762 -0.5584
vn -0.3269 -0.1938 -0.9250
vn -0.2351 0.2753 -0.9322
vn -0.8806 0.4490 -0.1512
vn -0.9150 0.2997 -0.2700
vn -0.9556 0.1162 -0.2708
vn -0.9873 -0.0332 -0.1551
vn -0.9736 -0.0404 0.2247
vn -0.9951 -0.0930 0.0341
vn -0.9331 0.1045 0.3441
vn -0.8921 0.2878 0.3482
vn -0.8626 0.5042 0.0423
vn -0.8662 0.4415 0.2339
vn -0.7011 -0.5644 -0.4358
vn -0.7124 -0.7017 0.0106
vn -0.2233 -0.8009 -0.5556
vn -0.9993 -0.0000 0.0363
vn -0.0410 -0.0000 -0.9992
vn -0.2433 -0.9699 -0.0123
vn 0.9993 -0.0000 -0.0363
vn 0.0410 -0.0000 0.9992
vn -0.1842 -0.8239 0.5360
vn 0.3082 -0.9508 -0.0319
vn 0.3633 -0.8281 0.4269
vn 0.8806 -0.4490 0.1512
vn 0.8626 -0.5042 -0.0423
vn 0.3297 -0.8088 -0.4869
vn 0.8662 -0.4415 -0.2339
vn 0.4707 -0.3400 -0.8142
vn 0.8921 -0.2878 -0.3482
vn 0.9331 -0.1045 -0.3441
vn 0.5834 0.1254 -0.8025
vn -0.1055 -0.2643 -0.9587
vn 0.0362 0.3011 -0.9529
vn 0.1703 0.7793 -0.6030
vn 0.7000 0.5027 -0.5073
vn 0.2433 0.9699 0.0123
vn 0.7630 0.6462 -0.0136
vn 0.9951 0.0930 -0.0341
vn 0.9736 0.0404 -0.2247
vn 0.9873 0.0332 0.1551
vn 0.7347 0.4833 0.4761
vn 0.6399 0.0956 0.7625
vn 0.9556 -0.1162 0.2708
vn 0.5287 -0.3705 0.7637
vn 0.9150 -0.2997 0.2700
vn 0.1055 0.2643 0.9587
vn -0.0362 -0.3011 0.9529
vn -0.4707 0.3400 0.8142
vn -0.5834 -0.1254 0.8024
vn -0.3990 0.7454 0.5340
vn 0.2142 0.7541 0.6209
vn -0.3874 0.9213 0.0341
vn -0.6694 -0.5825 0.4611
vn -0.4364 0.7661 -0.4718
vn -0.5287 0.3705 -0.7637
vn -0.6399 -0.0956 -0.7625
vn -0.9354 0.0317 0.3521
vn -0.8891 -0.1310 0.4386
vn -0.8546 -0.4477 0.2632
vn -0.8758 -0.4784 0.0641
vn -0.9774 0.1142 0.1778
vn -0.9858 -0.0450 -0.1621
vn -0.9536 -0.2265 -0.1982
vn -0.9128 -0.3925 -0.1128
vn -0.8585 -0.3137 0.4056
vn -0.9962 0.0849 -0.0188
vn -0.7651 0.5757 -0.2884
vn -0.7244 0.2330 -0.6488
vn -0.2086 0.4175 -0.8844
vn -0.2495 0.8560 -0.4527
vn 0.3738 0.8130 -0.4463
vn 0.3883 0.4529 -0.8026
vn 0.4730 -0.0135 -0.8809
vn -0.0962 -0.1468 -0.9845
vn 0.8585 0.3137 -0.4056
vn 0.8891 0.1310 -0.4386
vn 0.9774 -0.1142 -0.1778
vn 0.9354 -0.0317 -0.3521
vn 0.9962 -0.0849 0.0188
vn 0.9128 0.3925 0.1127
vn 0.9536 0.2264 0.1982
vn 0.8758 0.4783 -0.0641
vn 0.9858 0.0450 0.1621
vn 0.8546 0.4477 -0.2632
vn 0.4292 0.8999 0.0778
vn 0.6335 0.2285 0.7392
vn 0.7244 -0.2330 0.6488
vn 0.2086 -0.4175 0.8844
vn 0.0963 0.1468 0.9845
vn -0.4730 0.0135 0.8809
vn -0.3883 -0.4529 0.8026
vn -0.0521 0.6704 0.7402
vn -0.6017 0.4330 0.6712
vn -0.1894 0.9636 0.1889
vn -0.7200 0.6566 0.2248
vn 0.5266 0.6615 0.5339
vn -0.3738 -0.8130 0.4463
vn 0.2495 -0.8560 0.4527
vn 0.1894 -0.9636 -0.1889
vn -0.4292 -0.8999 -0.0778
vn 0.7200 -0.6566 -0.2248
vn 0.7651 -0.5757 0.2884
vn 0.0521 -0.6704 -0.7402
vn 0.6017 -0.4330 -0.6712
vn -0.5266 -0.6615 -0.5339
vn -0.6336 -0.2285 -0.7392
vn -0.3835 0.1943 -0.9029
vn -0.2434 0.0750 -0.9670
vn -0.1915 -0.1051 -0.9759
vn -0.2478 -0.2792 -0.9277
vn -0.3916 -0.3807 -0.8377
vn -0.5662 -0.3682 -0.7374
vn -0.7030 -0.2470 -0.6669
vn -0.7521 -0.0659 -0.6558
vn -0.5574 0.2065 -0.8041
vn -0.6974 0.1068 -0.7087
vn -0.9965 -0.0015 -0.0832
vn -0.8686 0.4439 -0.2201
vn -0.8672 0.0606 0.4943
vn -0.7153 0.6103 0.3404
vn -0.4303 0.1013 0.8970
vn -0.2962 0.5522 0.7793
vn 0.2478 0.2792 0.9277
vn 0.1915 0.1051 0.9759
vn 0.3916 0.3807 0.8377
vn 0.0727 0.8317 0.5504
vn 0.5662 0.3682 0.7374
vn 0.5332 0.7963 0.2857
vn 0.2920 0.9149 -0.2788
vn -0.2771 0.9598 0.0450
vn 0.7192 0.5055 -0.4767
vn 0.8779 0.4669 0.1064
vn 0.8672 -0.0606 -0.4943
vn 0.9965 0.0015 0.0832
vn 0.7030 0.2470 0.6669
vn 0.7521 0.0659 0.6558
vn 0.8686 -0.4439 0.2201
vn 0.6974 -0.1068 0.7087
vn 0.5156 -0.7153 0.4717
vn 0.5574 -0.2065 0.8041
vn 0.3835 -0.1943 0.9029
vn 0.0584 -0.6811 0.7298
vn -0.2920 -0.9149 0.2788
vn 0.2771 -0.9598 -0.0450
vn -0.3005 -0.3603 0.8831
vn -0.7192 -0.5055 0.4767
vn -0.5332 -0.7963 -0.2857
vn -0.8779 -0.4669 -0.1064
vn -0.0727 -0.8317 -0.5504
vn 0.2962 -0.5522 -0.7793
vn 0.7153 -0.6103 -0.3404
vn 0.4303 -0.1013 -0.8970
vn 0.2434 -0.0750 0.9670
vn 0.3005 0.3603 -0.8831
vn -0.0584 0.6811 -0.7298
vn -0.5156 0.7153 -0.4717
vt 0.019002 -0.724858
vt 0.019002 -0.721658
vt 0.020602 -0.721658
vt 0.017402 -0.724858
vt 0.017402 -0.721658
vt 0.025402 -0.724858
vt 0.025402 -0.721658
vt 0.027002 -0.721658
vt 0.023802 -0.724858
vt 0.023802 -0.721658
vt 0.028602 -0.724858
vt 0.028602 -0.721658
vt 0.030202 -0.721658
vt 0.014202 -0.724858
vt 0.014202 -0.721658
vt 0.015802 -0.721658
vt 0.015802 -0.724858
vt 0.020602 -0.724858
vt 0.022202 -0.721658
vt 0.022202 -0.724858
vt 0.027002 -0.724858
vt 0.027002 -0.718458
vt 0.028602 -0.718458
vt 0.030202 -0.718458
vt 0.028602 -0.715258
vt 0.030202 -0.715258
vt 0.027002 -0.715258
vt 0.027002 -0.712058
vt 0.028602 -0.712058
vt 0.030202 -0.712058
vt 0.014202 -0.715258
vt 0.014202 -0.712058
vt 0.015802 -0.712058
vt 0.015802 -0.715258
vt 0.014202 -0.718458
vt 0.015802 -0.718458
vt 0.028602 -0.708858
vt 0.014202 -0.708858
vt 0.019002 -0.712058
vt 0.017402 -0.712058
vt 0.017402 -0.708858
vt 0.015802 -0.708858
vt 0.020602 -0.712058
vt 0.019002 -0.708858
vt 0.025402 -0.712058
vt 0.023802 -0.712058
vt 0.023802 -0.708858
vt 0.022202 -0.712058
vt 0.022202 -0.708858
vt 0.025402 -0.708858
vt 0.020602 -0.708858
vt 0.027002 -0.708858
vt 0.025402 -0.715258
vt 0.022202 -0.715258
vt 0.023802 -0.715258
vt 0.020602 -0.715258
vt 0.020602 -0.718458
vt 0.022202 -0.718458
vt 0.023802 -0.718458
vt 0.025402 -0.718458
vt 0.019002 -0.718458
vt 0.019002 -0.715258
vt 0.017402 -0.718458
vt 0.017402 -0.715258
vt 0.048602 -0.634192
vt 0.048602 -0.630992
vt 0.050202 -0.630992
vt 0.034202 -0.634192
vt 0.034202 -0.630992
vt 0.035802 -0.630992
vt 0.035802 -0.634192
vt 0.037402 -0.630992
vt 0.037402 -0.634192
vt 0.039002 -0.630992
vt 0.040602 -0.634192
vt 0.040602 -0.630992
vt 0.042202 -0.630992
vt 0.039002 -0.634192
vt 0.042202 -0.634192
vt 0.043802 -0.630992
vt 0.043802 -0.634192
vt 0.045402 -0.630992
vt 0.047002 -0.634192
vt 0.047002 -0.630992
vt 0.045402 -0.634192
vt 0.037402 -0.627792
vt 0.039002 -0.627792
vt 0.040602 -0.627792
vt 0.037402 -0.624592
vt 0.039002 -0.624592
vt 0.729002 -0.972792
vt 0.730602 -0.972792
vt 0.729002 -0.969592
vt 0.040602 -0.624592
vt 0.730602 -0.969592
vt 0.042202 -0.624592
vt 0.042202 -0.627792
vt 0.039002 -0.621392
vt 0.040602 -0.621392
vt 0.042202 -0.621392
vt 0.040602 -0.618192
vt 0.039002 -0.618192
vt 0.037402 -0.621392
vt 0.037402 -0.618192
vt 0.035802 -0.624592
vt 0.035802 -0.621392
vt 0.035802 -0.618192
vt 0.034202 -0.621392
vt 0.034202 -0.618192
vt 0.034202 -0.624592
vt 0.035802 -0.627792
vt 0.034202 -0.627792
vt 0.048602 -0.627792
vt 0.048602 -0.624592
vt 0.050202 -0.624592
vt 0.050202 -0.627792
vt 0.048602 -0.621392
vt 0.050202 -0.621392
vt 0.047002 -0.627792
vt 0.047002 -0.624592
vt 0.047002 -0.621392
vt 0.047002 -0.618192
vt 0.048602 -0.618192
vt 0.045402 -0.621392
vt 0.045402 -0.618192
vt 0.045402 -0.624592
vt 0.043802 -0.624592
vt 0.043802 -0.621392
vt 0.043802 -0.618192
vt 0.042202 -0.618192
vt 0.043802 -0.627792
vt 0.045402 -0.627792
s 0
usemtl Material.013
f 1/1/1 2/2/1 7/3/1
f 1/4/2 6/5/2 2/2/2
f 1/6/3 3/7/3 10/8/3
f 1/9/4 9/10/4 3/7/4
f 1/11/5 11/12/5 4/13/5
f 1/14/6 4/15/6 5/16/6
f 1/17/7 5/16/7 6/5/7
f 1/18/8 7/3/8 8/19/8
f 1/20/9 8/19/9 9/10/9
f 1/21/10 10/8/10 11/12/10
f 10/8/11 14/22/11 12/23/11 11/12/11
f 11/12/12 12/23/12 13/24/12 4/13/12
f 12/23/13 15/25/13 18/26/13 13/24/13
f 14/22/14 16/27/14 15/25/14 12/23/14
f 16/27/15 29/28/15 17/29/15 15/25/15
f 15/25/16 17/29/16 20/30/16 18/26/16
f 18/31/17 20/32/17 21/33/17 19/34/17
f 13/35/18 18/31/18 19/34/18 42/36/18
f 20/30/19 17/29/19 22/37/19
f 21/33/20 20/32/20 22/38/20
f 24/39/21 23/40/21 22/41/21
f 23/40/22 21/33/22 22/42/22
f 27/43/23 24/39/23 22/44/23
f 26/45/24 25/46/24 22/47/24
f 25/46/25 28/48/25 22/49/25
f 29/28/26 26/45/26 22/50/26
f 28/48/27 27/43/27 22/51/27
f 17/29/28 29/28/28 22/52/28
f 37/53/29 26/45/29 29/28/29 16/27/29
f 30/54/30 28/48/30 25/46/30 32/55/30
f 31/56/31 27/43/31 28/48/31 30/54/31
f 34/57/32 31/56/32 30/54/32 33/58/32
f 33/58/33 30/54/33 32/55/33 35/59/33
f 8/19/34 33/58/34 35/59/34 9/10/34
f 7/3/35 34/57/35 33/58/35 8/19/35
f 35/59/36 32/55/36 37/53/36 36/60/36
f 9/10/37 35/59/37 36/60/37 3/7/37
f 36/60/38 37/53/38 16/27/38 14/22/38
f 3/7/39 36/60/39 14/22/39 10/8/39
f 32/55/40 25/46/40 26/45/40 37/53/40
f 2/2/41 38/61/41 34/57/41 7/3/41
f 38/61/42 40/62/42 31/56/42 34/57/42
f 39/63/43 41/64/43 40/62/43 38/61/43
f 6/5/44 39/63/44 38/61/44 2/2/44
f 41/64/45 23/40/45 24/39/45 40/62/45
f 40/62/46 24/39/46 27/43/46 31/56/46
f 42/36/47 19/34/47 41/64/47 39/63/47
f 19/34/48 21/33/48 23/40/48 41/64/48
f 5/16/49 42/36/49 39/63/49 6/5/49
f 4/15/50 13/35/50 42/36/50 5/16/50
f 43/65/51 51/66/51 44/67/51
f 43/68/52 44/69/52 45/70/52
f 43/71/53 45/70/53 46/72/53
f 43/73/54 46/72/54 53/74/54
f 43/75/55 47/76/55 48/77/55
f 43/78/56 53/74/56 47/76/56
f 43/79/57 48/77/57 49/80/57
f 43/81/58 49/80/58 52/82/58
f 43/83/59 50/84/59 51/66/59
f 43/85/60 52/82/60 50/84/60
f 46/72/61 55/86/61 54/87/61 53/74/61
f 53/74/62 54/87/62 56/88/62 47/76/62
f 55/86/63 69/89/63 57/90/63 54/87/63
f 54/91/64 58/91/64 59/92/64 56/92/64
f 57/93/65 60/93/65 58/91/65 54/91/65
f 58/87/66 60/90/66 61/94/66 59/88/66
f 62/95/67 61/95/67 60/93/67 57/93/67
f 56/92/68 59/92/68 61/95/68 62/95/68
f 56/88/69 62/94/69 63/96/69 86/97/69
f 57/90/70 67/98/70 64/99/70 62/94/70
f 62/94/71 64/99/71 65/100/71 63/96/71
f 65/100/72 64/99/72 66/101/72
f 64/99/73 67/98/73 66/102/73
f 69/89/74 68/103/74 67/98/74 57/90/74
f 67/98/75 68/103/75 66/104/75
f 72/105/76 70/106/76 68/103/76 69/89/76
f 68/103/77 70/106/77 66/107/77
f 70/106/78 71/108/78 66/109/78
f 74/110/79 71/108/79 70/106/79 72/105/79
f 73/111/80 72/105/80 69/89/80 55/86/80
f 75/112/81 74/110/81 72/105/81 73/111/81
f 77/113/82 76/114/82 74/115/82 75/116/82
f 76/114/83 79/117/83 71/118/83 74/115/83
f 88/119/84 78/120/84 76/114/84 77/113/84
f 78/120/85 80/121/85 79/117/85 76/114/85
f 79/117/86 80/121/86 66/122/86
f 71/118/87 79/117/87 66/123/87
f 80/121/88 81/124/88 66/125/88
f 82/126/89 81/124/89 80/121/89 78/120/89
f 84/127/90 83/128/90 81/124/90 82/126/90
f 81/124/91 83/128/91 66/129/91
f 63/96/92 65/100/92 83/128/92 84/127/92
f 83/128/93 65/100/93 66/130/93
f 85/131/94 84/127/94 82/126/94 87/132/94
f 86/97/95 63/96/95 84/127/95 85/131/95
f 49/80/96 85/131/96 87/132/96 52/82/96
f 48/77/97 86/97/97 85/131/97 49/80/97
f 52/82/98 87/132/98 88/119/98 50/84/98
f 87/132/99 82/126/99 78/120/99 88/119/99
f 50/84/100 88/119/100 77/113/100 51/66/100
f 47/76/101 56/88/101 86/97/101 48/77/101
f 51/66/102 77/113/102 75/116/102 44/67/102
f 44/69/103 75/112/103 73/111/103 45/70/103
f 45/70/104 73/111/104 55/86/104 46/72/104
f 89/9/105 90/10/105 92/7/105
f 89/20/106 97/19/106 90/10/106
f 89/1/107 91/2/107 96/3/107
f 89/4/108 95/5/108 91/2/108
f 89/6/109 92/7/109 98/8/109
f 89/11/110 99/12/110 93/13/110
f 89/14/111 93/15/111 94/16/111
f 89/17/112 94/16/112 95/5/112
f 89/18/113 96/3/113 97/19/113
f 89/21/114 98/8/114 99/12/114
f 98/8/115 102/22/115 100/23/115 99/12/115
f 99/12/116 100/23/116 101/24/116 93/13/116
f 100/23/117 103/25/117 106/26/117 101/24/117
f 102/22/118 104/27/118 103/25/118 100/23/118
f 104/27/119 117/28/119 105/29/119 103/25/119
f 103/25/120 105/29/120 108/30/120 106/26/120
f 106/31/121 108/32/121 109/33/121 107/34/121
f 101/35/122 106/31/122 107/34/122 130/36/122
f 108/30/123 105/29/123 110/37/123
f 109/33/124 108/32/124 110/38/124
f 112/39/125 111/40/125 110/41/125
f 111/40/126 109/33/126 110/42/126
f 115/43/127 112/39/127 110/44/127
f 114/45/128 113/46/128 110/47/128
f 113/46/129 116/48/129 110/49/129
f 117/28/130 114/45/130 110/50/130
f 116/48/131 115/43/131 110/51/131
f 105/29/132 117/28/132 110/52/132
f 125/53/133 114/45/133 117/28/133 104/27/133
f 118/54/134 116/48/134 113/46/134 120/55/134
f 119/56/135 115/43/135 116/48/135 118/54/135
f 122/57/136 119/56/136 118/54/136 121/58/136
f 121/58/137 118/54/137 120/55/137 123/59/137
f 97/19/138 121/58/138 123/59/138 90/10/138
f 96/3/139 122/57/139 121/58/139 97/19/139
f 123/59/140 120/55/140 125/53/140 124/60/140
f 90/10/141 123/59/141 124/60/141 92/7/141
f 124/60/142 125/53/142 104/27/142 102/22/142
f 92/7/143 124/60/143 102/22/143 98/8/143
f 120/55/144 113/46/144 114/45/144 125/53/144
f 91/2/145 126/61/145 122/57/145 96/3/145
f 126/61/146 128/62/146 119/56/146 122/57/146
f 127/63/147 129/64/147 128/62/147 126/61/147
f 95/5/148 127/63/148 126/61/148 91/2/148
f 129/64/149 111/40/149 112/39/149 128/62/149
f 128/62/150 112/39/150 115/43/150 119/56/150
f 130/36/151 107/34/151 129/64/151 127/63/151
f 107/34/152 109/33/152 111/40/152 129/64/152
f 94/16/153 130/36/153 127/63/153 95/5/153
f 93/15/154 101/35/154 130/36/154 94/16/154
f 131/11/155 140/12/155 132/13/155
f 131/14/156 132/15/156 133/16/156
f 131/17/157 133/16/157 134/5/157
f 131/4/158 134/5/158 135/2/158
f 131/1/159 135/2/159 136/3/159
f 131/18/160 136/3/160 137/19/160
f 131/20/161 137/19/161 138/10/161
f 131/9/162 138/10/162 141/7/162
f 131/21/163 139/8/163 140/12/163
f 131/6/164 141/7/164 139/8/164
f 138/10/165 143/59/165 142/60/165 141/7/165
f 141/7/166 142/60/166 144/22/166 139/8/166
f 143/59/167 146/55/167 145/53/167 142/60/167
f 142/60/168 145/53/168 147/27/168 144/22/168
f 146/55/169 150/46/169 148/45/169 145/53/169
f 145/53/170 148/45/170 151/28/170 147/27/170
f 151/28/171 148/45/171 149/50/171
f 148/45/172 150/46/172 149/47/172
f 152/29/173 151/28/173 149/52/173
f 147/27/174 151/28/174 152/29/174 154/25/174
f 153/30/175 152/29/175 149/37/175
f 154/25/176 152/29/176 153/30/176 156/26/176
f 155/23/177 154/25/177 156/26/177 157/24/177
f 144/22/178 147/27/178 154/25/178 155/23/178
f 157/35/179 156/31/179 158/34/179 159/36/179
f 156/31/180 153/32/180 161/33/180 158/34/180
f 159/36/181 158/34/181 160/64/181 172/63/181
f 158/34/182 161/33/182 162/40/182 160/64/182
f 161/33/183 153/32/183 149/38/183
f 162/40/184 161/33/184 149/42/184
f 160/64/185 162/40/185 163/39/185 164/62/185
f 163/39/186 162/40/186 149/41/186
f 164/62/187 163/39/187 165/43/187 167/56/187
f 165/43/188 163/39/188 149/44/188
f 166/48/189 165/43/189 149/51/189
f 167/56/190 165/43/190 166/48/190 169/54/190
f 168/57/191 167/56/191 169/54/191 170/58/191
f 171/61/192 164/62/192 167/56/192 168/57/192
f 169/54/193 166/48/193 150/46/193 146/55/193
f 170/58/194 169/54/194 146/55/194 143/59/194
f 136/3/195 168/57/195 170/58/195 137/19/195
f 137/19/196 170/58/196 143/59/196 138/10/196
f 135/2/197 171/61/197 168/57/197 136/3/197
f 134/5/198 172/63/198 171/61/198 135/2/198
f 172/63/199 160/64/199 164/62/199 171/61/199
f 133/16/200 159/36/200 172/63/200 134/5/200
f 150/46/201 166/48/201 149/49/201
f 132/15/202 157/35/202 159/36/202 133/16/202
f 140/12/203 155/23/203 157/24/203 132/13/203
f 139/8/204 144/22/204 155/23/204 140/12/204
